<mxfile host="app.diagrams.net" modified="2021-11-10T11:38:43.967Z" agent="5.0 (Windows NT 10.0; Win64; x64) AppleWebKit/537.36 (KHTML, like Gecko) Chrome/95.0.4638.69 Safari/537.36" etag="bNshYbwcDFiCeNeoHeom" version="15.7.1" type="github">
  <diagram id="kgpKYQtTHZ0yAKxKKP6v" name="Page-1">
    <mxGraphModel dx="713" dy="387" grid="1" gridSize="10" guides="1" tooltips="1" connect="1" arrows="1" fold="1" page="1" pageScale="1" pageWidth="850" pageHeight="1100" math="0" shadow="0">
      <root>
        <mxCell id="0" />
        <mxCell id="1" parent="0" />
        <mxCell id="6At9aERGx6tPzczN_GLe-1" value="&lt;font size=&quot;1&quot;&gt;&lt;b&gt;act ACTIVITY LOGIN&lt;/b&gt;&lt;/font&gt;" style="shape=umlFrame;whiteSpace=wrap;html=1;hachureGap=4;pointerEvents=0;fontFamily=Times New Roman;fontSize=20;width=130;height=20;fillColor=#F5AB50;strokeColor=#909090;fontColor=#1A1A1A;align=left;fontStyle=0" vertex="1" parent="1">
          <mxGeometry x="80" y="40" width="480" height="720" as="geometry" />
        </mxCell>
        <mxCell id="6At9aERGx6tPzczN_GLe-7" value=":Object" style="shape=umlLifeline;perimeter=lifelinePerimeter;container=1;collapsible=0;recursiveResize=0;rounded=0;shadow=0;strokeWidth=1;fontStyle=0;fontFamily=Times New Roman;" vertex="1" parent="1">
          <mxGeometry x="290" y="150" width="100" height="300" as="geometry" />
        </mxCell>
        <mxCell id="6At9aERGx6tPzczN_GLe-8" value="" style="points=[];perimeter=orthogonalPerimeter;rounded=0;shadow=0;strokeWidth=1;fontStyle=0;fontFamily=Times New Roman;" vertex="1" parent="6At9aERGx6tPzczN_GLe-7">
          <mxGeometry x="45" y="80" width="10" height="160" as="geometry" />
        </mxCell>
        <mxCell id="6At9aERGx6tPzczN_GLe-9" value="return" style="verticalAlign=bottom;endArrow=open;dashed=1;endSize=8;exitX=0;exitY=0.95;shadow=0;strokeWidth=1;fontStyle=0;fontFamily=Times New Roman;" edge="1" parent="1" source="6At9aERGx6tPzczN_GLe-8" target="6At9aERGx6tPzczN_GLe-4">
          <mxGeometry relative="1" as="geometry">
            <mxPoint x="265" y="306" as="targetPoint" />
          </mxGeometry>
        </mxCell>
        <mxCell id="6At9aERGx6tPzczN_GLe-10" value="dispatch" style="verticalAlign=bottom;endArrow=block;entryX=0;entryY=0;shadow=0;strokeWidth=1;fontStyle=0;fontFamily=Times New Roman;" edge="1" parent="1" source="6At9aERGx6tPzczN_GLe-4" target="6At9aERGx6tPzczN_GLe-8">
          <mxGeometry relative="1" as="geometry">
            <mxPoint x="265" y="230" as="sourcePoint" />
          </mxGeometry>
        </mxCell>
        <mxCell id="6At9aERGx6tPzczN_GLe-11" value="callback" style="verticalAlign=bottom;endArrow=block;entryX=1;entryY=0;shadow=0;strokeWidth=1;fontStyle=0;fontFamily=Times New Roman;" edge="1" parent="1" source="6At9aERGx6tPzczN_GLe-8">
          <mxGeometry relative="1" as="geometry">
            <mxPoint x="230" y="270" as="sourcePoint" />
            <mxPoint x="170" y="270" as="targetPoint" />
          </mxGeometry>
        </mxCell>
        <mxCell id="6At9aERGx6tPzczN_GLe-12" value="return" style="verticalAlign=bottom;endArrow=open;dashed=1;endSize=8;exitX=1;exitY=0.95;shadow=0;strokeWidth=1;fontStyle=0;fontFamily=Times New Roman;" edge="1" parent="1" target="6At9aERGx6tPzczN_GLe-8">
          <mxGeometry relative="1" as="geometry">
            <mxPoint x="230" y="327" as="targetPoint" />
            <mxPoint x="170" y="346" as="sourcePoint" />
          </mxGeometry>
        </mxCell>
        <mxCell id="6At9aERGx6tPzczN_GLe-16" value="&lt;span style=&quot;background-color: rgb(255 , 255 , 255)&quot;&gt;User&lt;/span&gt;" style="shape=umlLifeline;participant=umlActor;perimeter=lifelinePerimeter;whiteSpace=wrap;html=1;container=1;collapsible=0;recursiveResize=0;verticalAlign=top;spacingTop=36;outlineConnect=0;hachureGap=4;pointerEvents=0;fontFamily=Times New Roman;fontSize=12;size=50;" vertex="1" parent="1">
          <mxGeometry x="150" y="140" width="20" height="300" as="geometry" />
        </mxCell>
        <mxCell id="6At9aERGx6tPzczN_GLe-4" value="" style="points=[];perimeter=orthogonalPerimeter;rounded=0;shadow=0;strokeWidth=1;fontStyle=0;fontFamily=Times New Roman;" vertex="1" parent="1">
          <mxGeometry x="155" y="220" width="10" height="190" as="geometry" />
        </mxCell>
      </root>
    </mxGraphModel>
  </diagram>
</mxfile>
